# xmcd
#
# Track frame offsets:
#	150
#	16134
#	39675
#	55281
#	73086
#	87841
#	107910
#	126558
#	142458
#	160830
#	173900
#	193625
#	208538
#	228459
#	246011
#	263098
#	281024
#
# Disc length: 4001 seconds
#
# Revision: 0
# Processed by: cddbd v1.5.1PL2 Copyright (c) Steve Scherf et al.
# Submitted via: audiograbber 1.83.01
#
DISCID=020f9f11
DTITLE=The Judds - CKC-19
DYEAR=1900
DGENRE=
TTITLE0=Why Not Me
TTITLE1=Love Can Build A Bridge
TTITLE2=Have Mercy
TTITLE3=Born To Be Blue
TTITLE4=Mama He's Crazy
TTITLE5=Young Love
TTITLE6=Love Is Alive
TTITLE7=Change Of Heart
TTITLE8=One Hundred And Two
TTITLE9=Rockin' With The Rythm Of The Rain
TTITLE10=Grandpa
TTITLE11=Rock Bottom
TTITLE12=My Stongest Weakness
TTITLE13=Tell Me Why
TTITLE14=What The World Needs Now
TTITLE15=I Saw The Light
TTITLE16=No One Else On Earth
EXTD=
EXTT0=
EXTT1=
EXTT2=
EXTT3=
EXTT4=
EXTT5=
EXTT6=
EXTT7=
EXTT8=
EXTT9=
EXTT10=
EXTT11=
EXTT12=
EXTT13=
EXTT14=
EXTT15=
EXTT16=
PLAYORDER=
